{"title":"Werewolf Rising (2014) DVDRip XviD AC3 peaSoup","uid":11151898,"size":1258093834,"categoryP":"video","categoryS":"movies","magnet":"?xt=urn:btih:8629feef8d1a02ca3f9aa4b6b35c1319267f05d4&amp;dn=Werewolf+Rising+%282014%29+DVDRip+XviD+AC3+peaSoup&amp;tr=udp%3A%2F%2Ftracker.openbittorrent.com%3A80&amp;tr=udp%3A%2F%2Fopen.demonii.com%3A1337&amp;tr=udp%3A%2F%2Ftracker.coppersurfer.tk%3A6969&amp;tr=udp%3A%2F%2Fexodus.desync.com%3A6969","seeders":12,"leechers":1,"uploader":"peaSoup","files":-1,"time":1412353328,"description":"Storyline\n\nEmma is a country girl who left for the big city only to return years later with big problems. And when she returns to her childhood home deep in the Arkansas mountains for some well needed rest, relaxation, and soul searching, her problems have only just begun.                                                                         &lt;a href=&quot; http://i.imgur.com/rtO5Gkx.jpg&quot; rel=&quot;nofollow&quot; target=&quot;_NEW&quot;&gt; http://i.imgur.com/rtO5Gkx.jpg&lt;/a&gt;                                                      &lt;a href=&quot; http://i.imgur.com/xnD0FP8.jpg&quot; rel=&quot;nofollow&quot; target=&quot;_NEW&quot;&gt; http://i.imgur.com/xnD0FP8.jpg&lt;/a&gt;                                                      &lt;a href=&quot; http://i.imgur.com/BapMlE9.jpg&quot; rel=&quot;nofollow&quot; target=&quot;_NEW&quot;&gt; http://i.imgur.com/BapMlE9.jpg&lt;/a&gt;                                                      &lt;a href=&quot; http://i.imgur.com/ML9HdRl.jpg&quot; rel=&quot;nofollow&quot; target=&quot;_NEW&quot;&gt; http://i.imgur.com/ML9HdRl.jpg&lt;/a&gt;                                                      &lt;a href=&quot; http://i.imgur.com/1Ch49Ab.jpg&quot; rel=&quot;nofollow&quot; target=&quot;_NEW&quot;&gt; http://i.imgur.com/1Ch49Ab.jpg&lt;/a&gt;                                                       \nFormat                                   : AVI\nFormat/Info                              : Audio Video Interleave\nFormat profile                           : OpenDML\nFile size                                : 1.17 GiB\nDuration                                 : 1h 16mn\nOverall bit rate                         : 2 188 Kbps\nMovie name                               : Werewolf Rising (2014) DVDRip XviD AC3 peaSoup\nWriting application                      : Lavf55.33.100\nOriginal source form/Name                : WEREWOLF_RISING\n\nVideo\nID                                       : 0\nFormat                                   : MPEG-4 Visual\nFormat profile                           : Advanced Simple@L5\nFormat settings, BVOP                    : 2\nFormat settings, QPel                    : No\nFormat settings, GMC                     : No warppoints\nFormat settings, Matrix                  : Default (MPEG)\nMuxing mode                              : Packed bitstream\nCodec ID                                 : XVID\nCodec ID/Hint                            : XviD\nDuration                                 : 1h 16mn\nBit rate                                 : 1 726 Kbps\nWidth                                    : 720 pixels\nHeight                                   : 404 pixels\nDisplay aspect ratio                     : 16:9\nFrame rate                               : 25.000 fps\nColor space                              : YUV\nChroma subsampling                       : 4:2:0\nBit depth                                : 8 bits\nScan type                                : Progressive\nCompression mode                         : Lossy\nBits/(Pixel*Frame)                       : 0.237\nStream size                              : 947 MiB (79%)\nWriting library                          : XviD 64\n\nAudio\nID                                       : 1\nFormat                                   : AC-3\nFormat/Info                              : Audio Coding 3\nMode extension                           : CM (complete main)\nFormat settings, Endianness              : Big\nCodec ID                                 : 2000\nDuration                                 : 1h 16mn\nBit rate mode                            : Constant\nBit rate                                 : 448 Kbps\nChannel(s)                               : 6 channels\nChannel positions                        : Front: L C R, Side: L R, LFE\nSampling rate                            : 48.0 KHz\nBit depth                                : 16 bits\nCompression mode                         : Lossy\nStream size                              : 246 MiB (20%)\nAlignment                                : Aligned on interleaves\nInterleave, duration                     : 32 ms (0.80 video frame)","torrent":{"xt":"urn:btih:8629feef8d1a02ca3f9aa4b6b35c1319267f05d4","amp;dn":"Werewolf+Rising+%282014%29+DVDRip+XviD+AC3+peaSoup","amp;tr":["udp%3A%2F%2Ftracker.openbittorrent.com%3A80","udp%3A%2F%2Fopen.demonii.com%3A1337","udp%3A%2F%2Ftracker.coppersurfer.tk%3A6969","udp%3A%2F%2Fexodus.desync.com%3A6969"],"infoHash":"8629feef8d1a02ca3f9aa4b6b35c1319267f05d4","infoHashBuffer":{"type":"Buffer","data":[134,41,254,239,141,26,2,202,63,154,164,182,179,92,19,25,38,127,5,212]},"announce":[],"urlList":[]}}